# xmcd CD database file
#
# Track frame offsets:
#	150
#	16824
#	33108
#	44503
#	62206
#	86858
#	102722
#	114631
#	128800
#	146937
#	163167
#	181955
#
# Disc length: 2594 seconds
#
# Revision: 0
# Processed by: cddbd v1.5.2PL0 Copyright (c) Steve Scherf et al.
# Submitted via: ACXtractor (MTCDDB.DLL V2003.07.15)
#
DISCID=ae0a200c
DTITLE=Doug McIntyre - Australian Son
DYEAR=2010
DGENRE=Country
TTITLE0=Adelaide
TTITLE1=Donald Mackay
TTITLE2=Carrathool Races
TTITLE3=Going Home Someday
TTITLE4=Jessica
TTITLE5=Dragonfly
TTITLE6=Proud to be a Truckie
TTITLE7=Australian Son
TTITLE8=Taste of Paradise
TTITLE9=Everyone Needs Someone
TTITLE10=Yellow Moon
TTITLE11=Country Road
EXTD=ID3G:   2 YEAR: 2010
EXTT0=
EXTT1=
EXTT2=
EXTT3=
EXTT4=
EXTT5=
EXTT6=
EXTT7=
EXTT8=
EXTT9=
EXTT10=
EXTT11=
PLAYORDER=
